<?xml version="1.0" encoding="utf-8"?>
<!-- Generator: Adobe Illustrator 24.0.0, SVG Export Plug-In . SVG Version: 6.00 Build 0)  -->
<svg version="1.1" xmlns="http://www.w3.org/2000/svg" xmlns:xlink="http://www.w3.org/1999/xlink" x="0px" y="0px"
	 viewBox="0 0 1996.2 1996.2" style="enable-background:new 0 0 1996.2 1996.2;" xml:space="preserve">
<style type="text/css">
	.st0{display:none;}
	.st1{display:inline;}
	.st2{fill:none;stroke:#000000;stroke-width:11.9055;stroke-miterlimit:11.3386;}
	.st3{fill:none;stroke:#000000;stroke-width:0.75;stroke-miterlimit:11.3386;}
	.st4{stroke:#000000;stroke-width:0.75;stroke-miterlimit:11.3386;}
	.st5{fill:none;stroke:#000000;stroke-width:2.1685;stroke-miterlimit:11.3386;}
	.st6{stroke:#000000;stroke-width:0.75;stroke-miterlimit:3;}
	.st7{fill:none;stroke:#000000;stroke-width:1.885;stroke-miterlimit:11.3386;}
	.st8{fill:none;stroke:#000000;stroke-width:1.3181;stroke-miterlimit:11.3386;}
	.st9{fill:none;stroke:#000000;stroke-width:3.8693;stroke-miterlimit:11.3386;}
	.st10{fill:none;stroke:#000000;stroke-width:2.452;stroke-miterlimit:11.3386;}
	.st11{fill:none;stroke:#000000;stroke-width:0.7512;stroke-miterlimit:11.3386;}
	.st12{fill:none;stroke:#000000;stroke-width:2.7354;stroke-miterlimit:11.3386;}
	.st13{display:inline;fill:none;stroke:#000000;stroke-width:6.5197;stroke-miterlimit:11.3386;}
	.st14{fill:none;stroke:#000000;stroke-width:3.4016;stroke-miterlimit:11.3386;}
	.st15{fill:none;}
	.st16{fill:none;stroke:#000000;stroke-width:6.5197;stroke-miterlimit:11.3386;}
	.st17{fill:none;stroke:#000000;stroke-width:6.5197;stroke-miterlimit:3;}
	.st18{fill:none;stroke:#000000;stroke-width:4.7197;stroke-miterlimit:11.3386;}
	.st19{fill:none;stroke:#000000;stroke-width:4.7197;stroke-miterlimit:3;}
	.st20{fill:none;stroke:#000000;stroke-width:11.9012;stroke-miterlimit:11.3386;}
	.st21{stroke:#000000;stroke-width:0.75;stroke-miterlimit:11.3386;stroke-opacity:0.9006;}
</style>
<g id="Layer_2" class="st0">
	<g class="st1">
		<circle id="path829_1_" class="st2" cx="998.1" cy="998.1" r="964"/>
		<g id="g4688_1_" transform="translate(2.6192413,3.7417733)">
			<ellipse id="path4545_1_" cx="952.6" cy="986.1" rx="13.1" ry="12.1"/>
			<circle id="path4547_1_" cx="1353.9" cy="1031.4" r="12.4"/>
			<path id="path4549_1_" class="st3" d="M1319.6,1031.9c-0.5,24.1,21.9,26.4,21.9,26.4s24.3,3.8,37.6-5.6
				c13.3-9.5,4.1-31.1,4.1-31.1L1319.6,1031.9z"/>
			<path id="path4551_1_" class="st4" d="M1278.4,1031c57.3-42.2,187.3-21.2,187.1,34c-73.3-74.4-168.6-22.5-168.6-22.5L1278.4,1031
				z"/>
			<path id="path4553_1_" class="st5" d="M1450.4,1049.7c-49.7,48.1-130.4,40.8-154.3-7.3c-3.9-7.9,37.3-25.2,37.3-25.2"/>
			<path id="path4555_1_" class="st4" d="M1278.4,1031c79.1-72.8,103.5-57.9,117.9-60.6c14.4-2.7,106.9-64.9,106.9-64.9l-5.4,48.7
				c0,0-21.2,22.5-50.5,36.1c-29.3,13.5-28.4-1.8-60,16.2c-31.6,18-32.9,12.6-32.9,12.6"/>
			<path id="path4557_1_" class="st5" d="M1083.4,1033c-30.2-9.5-71.7,7.2-101,6.3c-29.3-0.9-80.7-19.4-90.2-38.3
				C887.2,992.9,984.6,912.6,1083.4,1033z"/>
			<path id="path4577_1_" class="st6" d="M892.2,1001L892.2,1001L892.2,1001c-4.1-41.5,38.8-43.7,52.3-43.3
				c13.5,0.5,52.3-4.5,96.5,8.1c44.2,12.6-30.2-52.3-36.5-57.3c-6.3-5-111.4-73.5-111.4-73.5s12.2-21.2,54.1-5.9
				c41.9,15.3,126.2,72.1,146.1,93.8c19.8,21.6,29.3,37.9,56.4,52.3c27.1,14.4,29.3,28.4,29.3,28.4s-14.4-12.2-28-12.6
				c18.9,21.6,27.1,47.8,13.1,67.6c-19.4-38.8-52.8-43.7-117.2-64c-1.6-0.5-3.2-1-4.8-1.4l-10.1-9.1l-23.8-11.8l-33.2-7l-38.4,3.7
				l-29.8,14l-10.5,7.8L892.2,1001z"/>
			<path id="path4580_1_" class="st3" d="M922.8,975.5c-10.8,9.2-24.6,2-7.9,18.5c16.7,16.5,27.1,23.4,42.2,24.8
				c15.1,1.4,30.2-10.4,30.4-14.7c0.2-4.3,4.4-32.9-4.1-35.8c-8.4-2.9-25.7-6.3-25.7-6.3L922.8,975.5z"/>
			<path id="path4582_1_" class="st4" d="M958,1499.7c42.8,9,159.2-14.9,180.4,0c21.2,14.9,32.9,18,45.5,8.6
				c12.6-9.5,19.8-23,38.8-9c18.9,14,39.2,15.8,39.2,15.8l-99.6,9c0,0-11.3-0.9-15.3,3.6c-4.1,4.5-14.9,6.8-18.9,3.6
				c-4.1-3.2-18-8.6-26.6-9.5C1092.8,1520.9,980.1,1518.2,958,1499.7z"/>
			<path id="path4584_1_" class="st7" d="M1228.5,1515l-0.5,48.2c0,0,1.4,8.1-6.8,14.9c-8.1,6.8-138.4,32-188.9-7.2
				c-50.5-39.2,0.9,0.9,0.9,0.9"/>
			<path id="path4586_1_" class="st8" d="M1008.5,1302.6c-52.3,84.8-113.6,131.7-119,174.9c-5.4,43.3,40.6,129,40.6,129l0,0l0,0"/>
			<path id="path4588_1_" class="st8" d="M1301.6,1361.3c19.8,39.7,10.8,127.1,10.8,127.1"/>
			<path id="path4590_1_" class="st9" d="M1503.7,1024.9c0,0-8.9,147.9-17.9,173.4c-8.9,25.5-123.7,224.5-145.4,294.6
				c-21.7,70.1-114.8,198.9-114.8,198.9s-57.4,79.1-127.5,67.6c-70.1-11.5-147.9-8.9-147.9-8.9s-43.4,1.3-89.3-51
				c-45.9-52.3-85.4-79.1-85.4-79.1s-24.2-40.8-66.3-114.8c-42.1-74-80.3-112.2-88-220.6s-12.8-130.1-12.8-130.1
				s-7.7-39.5-44.6-61.2c-37-21.7-11.5-79.1-11.5-79.1l17.9-25.5l37,30.6c0,0,35.7,82.9,48.5,84.2s-14-96.9-2.6-116.1
				c11.5-19.1,15.3-19.1,16.6-38.3c1.3-19.1-2.6-25.5,2.6-43.4s15.3-35.7,15.3-35.7s6.4-7.7,25.5-15.3c19.1-7.7,23-7.7,30.6-14
				c7.7-6.4,8.9-3.8,17.9-16.6c8.9-12.8,11.5-10.2,16.6-24.2c5.1-14,8.9-26.8,8.9-33.2c0-6.4,10.6-65.2,19.6-73.3
				c9-8.1,15.3-15.3,21.6-18c6.3-2.7,28-1.8,28-1.8s14.4,3.6,28,9c13.5,5.4,15.3,5.4,29.8,9.9c14.4,4.5,25.2,8.1,32.5,6.3
				c7.2-1.8,28-9,28-9s57.7-37,71.2-31.6c-15.8,5.9-69.4,36.1-55,38.8c14.4,2.7,25.2,8.1,34.3,6.3c9-1.8,11.7-7.2,24.3,2.7
				c12.6,9.9,23.4,18,30.7,20.7c7.2,2.7,8.1,3.6,28.9,6.3c20.7,2.7,36.1,3.6,40.6,6.3s17.1,11.7,26.2,18.9c9,7.2,40.6,18,40.6,18
				s32,0.6,39.7-0.1c7.7-0.6,11.5,1.9,12.1,5.1c0.6,3.2,0.6,3.2,0.6,7c0,3.8-8.9,3.8,0,5.7c8.9,1.9,10.8,0,15.9-1.3
				c5.1-1.3,15.3-3.8,21-3.8c5.7,0,5.1-1.3,14.7-1.3h20.4c22.3,0,9.6,2.6,23-0.6c13.4-3.2,8.9-1.9,14.7-3.2
				c5.7-1.3,5.1-1.3,10.8-2.6c5.7-1.3,5.1-1.9,10.8-2.6c5.7-0.6-0.6-1.3,10.2-1.9c10.8-0.6,12.1-1.9,15.9-1.3
				c3.8,0.6-0.6-3.8,11.5,1.9c12.1,5.7,12.8,4.5,13.4,7c0.6,2.6,0,1.9,1.3,6.4c1.3,4.5,0.6,2.6,4.5,7.7c3.8,5.1-1.3,1.3,5.1,7
				c6.4,5.7,5.7,7.7,8.9,8.3c3.2,0.6-0.6,3.8,9.6,1.9c10.2-1.9,11.5-1.9,14.7-4.5c3.2-2.6,3.2-1.3,6.4-6.4c3.2-5.1,4.5-7.7,8.3-10.8
				s9.6-10.8,9.6-10.8s-0.8,81.2-8.3,101.4C1503.1,905.4,1503.7,1024.9,1503.7,1024.9L1503.7,1024.9z"/>
			<path id="path4605_1_" class="st8" d="M920.8,787.7c74-2.6,176,74,176,74"/>
			<path id="path4607_1_" class="st8" d="M1481,878.8c-145.2-12.6-192.1,27.1-220,26.2c-28-0.9-37-7.2-37-7.2"/>
			<path id="path4609_1_" class="st8" d="M941.8,762.5c149.7,12.6,263.3,114.5,263.3,114.5"/>
			<path id="path4611_1_" class="st8" d="M946.3,714.7c102.8,23.4,228.1,76.7,228.1,76.7"/>
			<path id="path4613_1_" class="st8" d="M1497.3,849.1c-105.5-20.7-166.8-6.3-204.7-8.1c-37.9-1.8-57.7-8.1-57.7-8.1"/>
			<path id="path4615_1_" class="st10" d="M1060.5,1258.9c-3.2,41.4-3.2,41.4-3.2,41.4s-3.8,35.1,15.9,30
				c19.8-5.1,40.8-10.8,63.8,1.9c23,12.8,24.2,10.2,24.2,10.2s13.4,25.5,39.5,26.8c26.1,1.3,51.6-9.6,55.5-17.2
				c3.8-7.7-4.5-10.8,2.6-12.8c7-1.9,25.5-2.6,25.5-12.1c0-9.6-5.1-40.2-5.1-40.2l0,0"/>
			<path id="path4619_1_" class="st4" d="M1100.3,1325.5c18.2,10.2,33.2,15.1,39.5,9.1C1119.9,1321.2,1100.3,1325.5,1100.3,1325.5z"
				/>
			<path id="path4621_1_" class="st4" d="M1257.5,1346.7c5-1.9,5.6-7.5,5.6-7.5l-5.6,2.3V1346.7z"/>
			<path id="path4623_1_" class="st10" d="M1278.4,1031c0,0-25.5,14.7-25.5,43.5c0,28.9-2.7,119.9-2.7,119.9l0,0"/>
			<path id="path4625_1_" class="st10" d="M1164.1,1058.7c0,0,1.4,35.6-5,44.6c-6.3,9-20.7,40.6-23.4,47.8c-2.7,7.2-3,7.8-3,7.8"/>
			<path id="path4627_1_" class="st4" d="M1033.3,1571.8c0,0,98.1,23.2,158.3,14.4c0,0-49.8,14.9-67.6,14.2
				C1106.1,1599.8,1060.1,1596.2,1033.3,1571.8L1033.3,1571.8z"/>
			<path id="path4590-4_1_" class="st4" d="M1503.7,1024.9c0,0,52.5-73.1,60.2-197.9c9-145.7,61.9-89.9-23.8-303.1
				c-196.5-347.5-452.7-344.2-497.6-344.6c-59.8-0.6-545.1-3.4-553.9,493.7c-56.2,83.7,81.6,316.3,63.8,341.8l17.9-25.5l37,30.6
				c0,0,35.7,82.9,48.5,84.2c12.8,1.3-14-96.9-2.6-116.1c11.5-19.1,15.3-19.1,16.6-38.3c1.3-19.1-2.6-25.5,2.6-43.4
				s15.3-35.7,15.3-35.7s6.4-7.7,25.5-15.3c19.1-7.7,23-7.7,30.6-14c7.7-6.4,8.9-3.8,17.9-16.6c8.9-12.8,11.5-10.2,16.6-24.2
				c5.1-14,8.9-26.8,8.9-33.2c0-6.4,10.6-65.2,19.6-73.3c9-8.1,15.3-15.3,21.6-18c6.3-2.7,28-1.8,28-1.8s14.4,3.6,28,9
				s15.3,5.4,29.8,9.9c14.4,4.5,25.2,8.1,32.5,6.3c7.2-1.8,28-9,28-9s57.7-37,71.2-31.6c-15.8,5.9-69.4,36.1-55,38.8
				c14.4,2.7,25.2,8.1,34.3,6.3c9-1.8,11.7-7.2,24.3,2.7c12.6,9.9,23.4,18,30.7,20.7c7.2,2.7,8.1,3.6,28.9,6.3
				c20.7,2.7,36.1,3.6,40.6,6.3c4.5,2.7,17.1,11.7,26.2,18.9c9,7.2,40.6,18,40.6,18s32,0.6,39.7-0.1c7.7-0.6,11.5,1.9,12.1,5.1
				c0.6,3.2,0.6,3.2,0.6,7c0,3.8-8.9,3.8,0,5.7s10.8,0,15.9-1.3c5.1-1.3,15.3-3.8,21-3.8c5.7,0,5.1-1.3,14.7-1.3h20.4
				c22.3,0,9.6,2.6,23-0.6c13.4-3.2,8.9-1.9,14.7-3.2c5.7-1.3,5.1-1.3,10.8-2.6c5.7-1.3,5.1-1.9,10.8-2.6c5.7-0.6-0.6-1.3,10.2-1.9
				c10.8-0.6,12.1-1.9,15.9-1.3c3.8,0.6-0.6-3.8,11.5,1.9c12.1,5.7,12.8,4.5,13.4,7c0.6,2.6,0,1.9,1.3,6.4c1.3,4.5,0.6,2.6,4.5,7.7
				c3.8,5.1-1.3,1.3,5.1,7c6.4,5.7,5.7,7.7,8.9,8.3c3.2,0.6-0.6,3.8,9.6,1.9c10.2-1.9,11.5-1.9,14.7-4.5c3.2-2.6,3.2-1.3,6.4-6.4
				c3.2-5.1,4.5-7.7,8.3-10.8c3.8-3.2,9.6-10.8,9.6-10.8s-0.8,81.2-8.3,101.4C1503.1,905.4,1503.7,1024.9,1503.7,1024.9
				L1503.7,1024.9z"/>
			<path id="path4644_1_" class="st9" d="M488.5,672.9c0,0-52.3,82.9-45.9,167.1s-3.8,206.6-3.8,206.6s-3.8,45.9,11.5,67.6
				c15.3,21.7,53.6,79.1,53.6,79.1s20.4,25.5,53.6,16.6c33.2-8.9,57.5,7.6,57.5,7.6"/>
			<path id="path4646_1_" class="st3" d="M455.4,841.2l0.6-41.4"/>
			<path id="path4648_1_" class="st8" d="M459.2,945.8c10.8-14,5.7-54.2,5.7-54.2"/>
			<path id="path4650_1_" class="st3" d="M457.3,1020.4c-6.4,32.5,5.1,70.8,28.1,91.2c23,20.4,22,19.1,29.3,23.6
				c7.3,4.5,8.6,3.1,12.8,5.7c4.1,2.6,7,9.6,7,9.6l0,0"/>
			<path id="path4652_1_" class="st11" d="M496.3,959.1c18-33.8,7.2-83-12.2-99.2"/>
			<path id="path4654_1_" class="st12" d="M568,1117.3c-88.4-48.2-55-78-29.8-114.5"/>
		</g>
	</g>
</g>
<g id="Layer_3" class="st0">
	<path id="path4707_2_" class="st13" d="M921.1,998.1"/>
	<g class="st1">
		<path id="path852_2_" class="st2" d="M27.5,998.1c0-534.5,433.3-967.9,967.9-967.9"/>
		<path id="path852" class="st2" d="M995.4,30.2c534.5,0,967.9,433.3,967.9,967.9S1529.9,1966,995.4,1966S27.5,1532.6,27.5,998.1"/>
		<ellipse id="path4669" class="st14" cx="634.2" cy="727.6" rx="33.9" ry="30.1"/>
		<path class="st15" d="M29.1,1008.5C29.1,484.7,461,60,993.8,60"/>
		<path class="st15" d="M993.8,60c532.8,0,964.7,424.6,964.7,948.4s-431.9,948.4-964.7,948.4S29.1,1532.3,29.1,1008.5"/>
		<path id="path4667_2_" class="st16" d="M1451.4,1580.6c-77.4-64.6-264.8,117.7-773.6-262.5c-293.4-172.9-301.7-158-331-180.2v0
			c-23.9-23.1-33.5-32.6-33.5-32.6l-62.9-129.5c0,0,13.7-16.3,14.6-35.3"/>
		<path id="path4667_1_" class="st16" d="M265,911.6c0,0,0-14.5,10-25.4c10-10.9,13.5-48.9,13.5-48.9l-8.6-20.8
			c0,0-2.7-22.6,58.9-41.6c61.6-19,198.8-147.6,198.8-147.6s93.6-89.4,231.8-25.1c23.8,11.1,51.2,42.3,51.2,42.3l73,1.3
			c0,0,34.6-2.6,57.6,5.1c23,7.7,126.8,34.6,126.8,34.6l121.6-18.6c0,0-39.7,40.3-14.1,32.7c36.2-12.7,61.5-32.9,100.5-30.7
			c0,0-67,17.8-49.3,51.2c14.2,11,114.7-51,153.7-26.2c-34,14.6-62.1,36.5-62.1,36.5s190-23.2,239.6-5.1
			c-36.9,17.4-82.6,55.7-82.6,55.7s266.9-24.9,324-3.8c-12.2,12.8-130.9,14.6-154.9,56.3c39.4,13.5,171.6-41.1,204.2-21.1
			c-17.3,11.7-55.1,19.8-61.5,44.8"/>
		<ellipse id="path4671" class="st16" cx="634.8" cy="728.9" rx="44.2" ry="37.1"/>
		<ellipse id="path4673" class="st16" cx="635.4" cy="728.9" rx="92.8" ry="83.2"/>
		<path id="path4677" class="st17" d="M643,604.7c-50.6,0.2-98.4,28.2-122.9,68.8c-9.7,16.1-15.8,34.2-17,53.4
			c0,17.8-2.9,59.2,5,74.5c21.9,42.6,77.1,35.1,134,35.1c77.2,0,140.8-42,140.8-109.5C782.8,659.4,720.2,604.7,643,604.7L643,604.7z
			"/>
		<path id="path4686" class="st18" d="M1454.4,1260.3c-37.1-47.4-55.1-170.3-57.6-222.8s-33.5-125.5-101.3-120.4
			c-67.9,5.1-88.3,29.4-179.3,48.7c-90.9,19.2-340.6,26.9-340.6,26.9s-23.6-2.3-81.5,11.3c-57.9,13.6-232.3-20.8-331-40.7
			c-98.7-19.9-98.1-51.6-98.1-51.6"/>
		<path id="path4688" class="st19" d="M1098.3,848.6c-44.9,0-81.3,31.2-81.3,69.8l0,0c0,22.7,12.8,43.9,34.4,56.9
			c25.4-2.8,47.9-6,64.8-9.6c21.2-4.5,38.4-9.2,53.4-13.9c6.5-10.3,9.9-21.7,9.9-33.4C1179.6,879.9,1143.2,848.6,1098.3,848.6
			L1098.3,848.6z"/>
		<path id="path4707_1_" class="st16" d="M1077.8,685.4"/>
	</g>
</g>
<g id="Layer_4">
	<g>
		<path id="path850_3_" class="st2" d="M998.1,1961.4c-532,0-963.3-431.3-963.3-963.3S466,34.7,998.1,34.7"/>
		<path id="path850_2_" class="st2" d="M1961.4,998.1c0,532-431.3,963.3-963.3,963.3"/>
		<path id="path850" class="st2" d="M998.1,34.7c532,0,963.3,431.3,963.3,963.3"/>
		<path id="path2204" d="M1797.6,1001.5c-1.7,12.9-0.8,20.2,3.5,27.6c9,15.7,11.7,38,7.9,65.6c-4.4,32-22,97.6-28.2,105.1
			c-2.6,3.1-10.6,18.8-17.7,34.9c-7.2,16.1-18.9,39.8-25.9,52.6c-7.1,12.9-16.4,31.7-20.6,42c-4.3,10.2-9.5,22.5-11.7,27.2
			c-6.4,14-59.4,51.1-72.7,51c-7.2-0.1-15.1,3-22.2,8.8c-8.9,7.2-24.1,11.9-80.5,24.7c-38.2,8.7-78.2,19.5-88.9,24
			c-12.5,5.3-67.2,17.6-153.6,34.6c-73.8,14.5-143,29.8-153.8,33.9c-63.2,24.3-163.6,35.8-186.9,21.5c-4.6-2.8-15.6-5.1-24.5-5
			c-30.3,0.2-55.4-6-80.2-19.8c-28.5-15.9-53.8-24-84-27c-11.7-1.2-26.1-4.2-32-6.7c-6-2.5-18.4-7.9-27.6-11.8
			c-9.2-4-18.1-8.6-19.6-10.3c-2.9-3.2-84.2-15.2-92.5-13.7c-2.6,0.5-16.6-2.2-31.1-6c-60.7-15.8-75.6-19.5-96.3-23.6
			c-12-2.4-33.7-8.8-48.2-14.2c-14.5-5.4-27.7-9.6-29.3-9.3c-1.6,0.3-9.9-7.7-18.3-17.7c-8.4-10-22-21.6-30.2-25.7
			c-9.2-4.7-20.2-15.2-29.1-28c-7.8-11.3-18.8-22.4-24.5-24.8c-8.9-3.7-11.2-7.7-16.9-29.4c-4.3-16.3-11.4-31.9-20.3-44.6
			c-11.6-16.4-14.7-24.6-19.8-52.2c-6.6-35.3-3.3-43.4,7.8-19.1c3.7,8.2,12.6,26.7,19.7,41.1c7.1,14.4,16,35.5,19.9,47
			c9.2,27.1,34.1,68,47.3,77.9c5.8,4.3,10.8,9.4,11.1,11.4c1.1,5.7,27.2,19.9,42.4,23.2c7.6,1.6,17.8,5.3,22.5,8.2
			c8.3,5.1,71.5,24.8,76.5,23.8c2.2-0.4,36.8,13.2,77.5,30.4c8.5,3.6,19.9,5.7,25.3,4.7c8.6-1.6,33.2,3.3,58.3,11.6
			c4.2,1.4,17.4,3.2,29.3,4c11.9,0.8,37.3,3.9,56.4,6.9c28.3,4.5,35.7,7.1,39.8,14.3c2.8,4.9,6.8,10.9,8.9,13.3
			c4.7,5.6,31.5,9.8,45.7,7.2c6.1-1.1,20.5,2.2,33.5,7.7c12.5,5.3,26.3,9.4,30.7,9.1c4.3-0.3,13.4,1.2,20,3.2
			c6.7,2.1,21.6,4,33.2,4.2c11.6,0.3,35.9,1.9,54.1,3.7c57.3,5.5,90.4,6.9,104.2,4.3c7.4-1.4,31.6-9.4,53.8-18
			c22.2-8.5,47.8-18.3,56.8-21.7c9-3.4,24-10.1,33.4-14.9c13.6-6.9,27.7-10,69.2-15.2c28.7-3.6,59.9-6.3,69.4-6.1
			c26.8,0.8,58.2-2.5,61.7-6.4c1.8-2,3.9-8.7,4.8-15c2.6-18.2,32.1-40.3,60.1-45c13.6-2.3,25-6.4,29.3-10.5
			c3.9-3.7,13.3-7.9,20.7-9.3c10.7-2,16.3-6.3,26.8-20.3c13.7-18.4,25.1-24.1,30.5-15.2c4.4,7.2,9.7,5.3,21.6-7.8
			c5.7-6.3,12-11.8,14-12.2c6.2-1.2,20.2,11.4,17.1,15.4c-1.6,2-11.4,15-21.9,28.8c-17.9,23.5-20.3,25.3-37.7,28.6
			c-13.3,2.5-19.5,2-21.8-1.8c-2.8-4.6-4.1-4.4-10.2,1.5c-3.9,3.7-20,10.1-35.9,14.2c-38.8,10.1-58.9,18.3-71.6,29.5
			c-18.6,16.3-10.2,17.1,50,4.7c80.5-16.6,118.4-31.3,123.7-48.1c1.6-5.1,9.3-16.3,17-25c7.7-8.7,21-26.2,29.5-38.9
			c8.5-12.7,20.3-27.5,26.1-32.8c5.9-5.3,10.4-11.3,10-13.2c-0.4-1.9,9-16.8,20.8-33.1c11.8-16.3,28.1-42.9,36.3-59.1
			c12.4-24.6,15.4-35.8,18.3-68.2c3.2-35.5,2.5-43.3-7.4-91.7c-11.8-57.3-15.3-64.9-44.9-96.5c-8.3-8.8-15.6-19.1-16.3-22.8
			c-1.8-9.6,7.8-14.1,17.4-8.2c31.3,19.2,3.8-45.7-38.3-90.4c-15.1-16.1,0-32.2,15.7-16.8c7.3,7.1,7.3,7.1,5.1-5.8
			c-2.3-13.3-24.1-45.6-44.9-66.6c-17-17.1-18.8-35.8-3.1-30.8c10.6,3.4,9-0.9-11.2-29.4c-9.6-13.5-24.5-29.2-33.2-34.8
			c-17.8-11.5-23.7-26.3-11.5-28.5c4.1-0.8,7.2-2.4,7-3.6c-1.3-7.2-18.9-21.5-33.5-27.3c-26.8-10.7-44.8-23.1-43.5-30.1
			c1.3-7.1,6.8-8.7,21-6.2c13.1,2.4,12.2-3.2-2.7-16.6c-13.1-11.8-42.6-20.5-59-17.5c-10.9,2-11.4,1.6-11-10.3
			c0.4-14.2,6.6-30.8,11.7-31.8c1.9-0.4,10,2.6,18,6.6c10.5,5.3,14.2,5.8,13.4,1.9c-1.4-7.6-13.1-14-34.5-18.8
			c-20.2-4.5-27.7-9.9-21.5-15.5c2.9-2.6,1.3-5.3-5.9-9.9c-10.3-6.5-20-7-18.9-1c0.4,1.9,2.5,4.2,4.8,5.1c5.3,2,8.4,18.2,4.2,22
			c-1.7,1.6-8.9,1.2-15.9-0.9c-9.1-2.7-13.6-2.5-15.9,0.9c-5.3,7.7-9,6.5-10.9-3.7c-1.9-9.9-16.7-20.8-26.5-19.5
			c-6,0.8-15.9-2.1-58.3-16.7c-14.8-5.1-29.9-8.7-33.7-8c-3.8,0.7-8.2-1-9.9-3.7c-3.7-6.1,3.9-5.2,46.5,5.3
			c4.6,1.1,11.4,0.9,15.2-0.4c3.7-1.4,11.4-0.4,17.1,2.2c5.7,2.6,12.2,4.3,14.4,3.9c2.3-0.4,7.5,1.8,11.7,5
			c12.3,9.4,41.6,6.6,39.7-3.8c-0.4-1.9-6.8-4.8-14.3-6.4c-7.5-1.6-15.1-4.5-16.9-6.5c-1.8-2-6.9-1.9-11.5,0.2
			c-5.3,2.4-9.6,2.1-12.2-1c-2.5-3-11.4-3.8-24.4-2.1c-19.8,2.6-20.5,2.3-21.7-7.7c-1.8-15.2-16.1-20.1-37.4-12.8
			c-9.1,3.2-18.2,8-20.2,10.7c-2,2.7-9,8.1-15.5,11.9c-10.9,6.4-12.8,6.4-22.9,0c-16.2-10.3-35.3-14.9-56.2-13.5
			c-21.2,1.4-28.9,7.7-26.3,21.5c1.1,5.8-1,10.5-6,13.6c-6.8,4.2-12.2,11.5-33.7,45.4c-7.5,11.8-13.9,9.5-19.2-6.9l-4.5-14.1
			l-6.8,13.8c-6.5,13.1-21.7,27.8-30.6,29.4c-5.7,1.1-19.4-10.4-20.7-17.5c-1.7-9.3-9.4-2.2-13.6,12.7l-3.9,13.8l-3.8-19.1
			c-6.8-34.7,1.4-47.4,28.8-44.4c14.3,1.5,16.9,0.3,50.9-24.3c19.7-14.3,36.4-28.7,37-32.1c0.6-3.4,4.2-6.8,7.9-7.4
			c3.7-0.7,7.5-3.1,8.3-5.4c1.9-5,3.3-5.3-38.4,8.9c-57.1,19.5-73.7,29.1-100.7,58c-40.3,43.2-43.9,45.3-47.4,26.7
			c-1.6-8.4-2.3-8.6-9.3-2.8c-13.3,11.1-37.8,38.1-54.5,60.2c-19,25.1-49.8,57-73.3,75.8c-9.1,7.3-31.7,28.5-50.3,47.1
			c-35.5,35.6-58.3,54.8-67,56.4c-2.9,0.5-7.8-1.2-10.9-3.7c-7.6-6.3-1-17,23.3-37.7c12-10.2,16.1-15.6,11.8-15.7
			c-3.6,0-10.2,3.5-14.8,8c-4.6,4.4-9.5,7.3-10.8,6.4c-1.3-0.9-12.7,4.6-25.2,12.4s-34.1,21-48,29.4c-13.9,8.5-28.2,19.3-31.7,24
			c-3.6,4.7-11.5,10.7-17.7,13.3c-6.2,2.6-12.8,7.4-14.7,10.8c-1.9,3.4-5.4,6.5-7.9,6.9c-4,0.8-12,8.7-46.7,46.9
			c-17.1,18.8-38.2,35.8-41.6,33.5c-1.7-1.2-1.1-6.9,1.3-12.7c2.4-5.8,3.1-12.1,1.4-13.9c-1.6-1.8,1.9-9.8,7.9-17.8
			c15.3-20.4,12.2-25.8-5.1-8.7c-8,7.9-14.2,15.8-13.9,17.6c0.3,1.8-6.9,9.1-16,16.1c-9.2,7-16.4,14.2-16.1,16
			c0.8,4.2-26.7,28.2-33.7,29.5c-2.9,0.5-15,10.5-26.9,22.2c-11.9,11.7-24.7,21.8-28.6,22.5c-7.7,1.4-16.5-7.5-18.7-19.1
			c-1.8-9.7-5-9-21.6,5.1c-18.1,15.3-38.9,52.1-40.4,71.7c-0.7,8.7-4.2,22.7-7.7,31.2c-3.6,8.5-8.5,27.5-10.9,42.4
			c-2.4,14.8-6.3,30.8-8.6,35.5c-15,30.9-17.5,37.9-15.9,46.1c2.4,13-0.8,39.1-5,39.9c-4.7,0.9-15.2-74.9-13-93.8
			c0.9-8,8.7-26.9,17.3-41.9c8.6-15,16.6-34.5,17.9-43.3c1.3-8.8,7.2-30.1,13.2-47.4c12.6-36.5,18-42.3,86.5-94
			c33.4-25.2,50.6-35.9,60.7-37.8c7.8-1.5,19.8-6.9,26.6-12.1c6.8-5.2,18.1-11.6,25.1-14.3c7-2.7,17.5-10,23.4-16.3
			c5.9-6.3,13.8-12.1,17.5-12.8c12.2-2.3,31.8-17.5,43-33.4c9.3-13.2,12.2-15.2,19.2-12.9c11.3,3.6,27.3-0.1,37.2-8.5
			c4.5-3.8,11.7-7.7,15.9-8.5c4.2-0.9,14.4-8.1,22.6-16.1c10.3-10,22.2-16.9,38.1-22.3c12.7-4.3,26.7-10.1,31.1-13
			c4.4-2.8,27.3-11.5,50.9-19.2c35.6-11.6,44.3-15.8,50.7-24.5c4.2-5.8,11.6-12.5,16.4-15c10.4-5.4,78.2-64.8,80.4-70.4
			c0.8-2.2,7.5-8.6,14.9-14.3c7.3-5.7,21-21.7,30.2-35.6c9.3-13.9,26.6-33.1,38.4-42.6c11.9-9.5,28.4-23.1,36.8-30.3
			c8.4-7.2,26.2-19.4,39.6-27.1c22.3-12.8,29.8-15,87.5-25.8c69-12.9,78.9-12.9,132.2,0.6c16,4,33.6,6.5,39.2,5.6
			c5.6-1,17.5,1.1,26.6,4.5c10.1,3.9,22.2,5.3,31.2,3.7c8.1-1.4,18.4-0.8,22.9,1.5c4.5,2.2,11.9,3.4,16.5,2.5
			c16.7-3.1,112,57.3,132.2,83.9c5.6,7.4,12.4,15.2,15,17.5c16.2,13.9,46.5,71.3,51.3,97.3c6.3,33.6,18.1,56.6,51,99.1l32.5,42
			l7.2,38.4c6.6,35.1,8.1,39.2,17.9,47.2c14.2,11.6,35.4,74.8,48.2,143.3c6.8,36.4,11.2,52.1,16.7,59
			C1794.8,961,1800.1,981.9,1797.6,1001.5L1797.6,1001.5z M1688.4,1326.9c-7.3,7.7-15.1,18-17.3,23c-3.8,8.3-3.6,8.7,1.9,5.3
			c3.3-2,7.3-4,9-4.3c4.8-0.9,21.6-27.9,20.6-33.2C1702,1314.8,1696.7,1318.2,1688.4,1326.9L1688.4,1326.9z M1237.4,344.7
			c-6.4,1.5-16.4,2.4-22.3,1.8c-14.8-1.4-12.5,5.7,3.5,10.3c15,4.3,15.8,4.2,27.4-2.9C1257.6,346.7,1252.3,341,1237.4,344.7
			L1237.4,344.7z M1269.6,1478.9c-14,3.7-28.5,8.6-32.2,11c-6.1,3.9-5.6,4.4,4.7,4.7c15.5,0.5,79.5-10.9,90.3-16.1
			C1348,1471,1298.5,1471.3,1269.6,1478.9L1269.6,1478.9z M990.2,391.5c-2.9,1.8-4.9,5-4.5,7.2c0.5,2.7,2.9,2.2,7.6-1.6
			C1001,390.9,998.5,386.4,990.2,391.5z M976.7,408c-3.9,0.7-10.3,10.2-9.6,14.1c0.3,1.7,3.6,0.7,7.2-2.2
			C980.9,414.6,982.4,406.9,976.7,408L976.7,408z M1683.9,1197.5c-9.4,10.1-9.5,10.1-10.9,2.8c-2-10.9-6.5-8.5-25.7,14.2
			c-17.7,20.9-31.2,27.9-33.2,17.2c-0.8-4.2-2.8-4.8-7-2c-3.3,2.2-9.8,5.5-14.5,7.5c-4.7,2-12.1,6.4-16.5,9.8
			c-10.2,8-22.5,7.1-24.2-1.8c-1.5-8-5.6-8.2-10.9-0.4c-4.5,6.6-71.7,21.3-75.9,16.7c-1.6-1.7-6-1.5-9.8,0.5
			c-9.5,5.1-25.4,3.6-26.5-2.5c-0.9-4.9,22.7-18,37.4-20.7c3.9-0.7,15.7-7.2,26.2-14.4c22.4-15.3,29-17.2,36.5-10.1
			c4.4,4.2,6.9,4.1,12.6-0.5c9.3-7.5,30.2-9.7,36.6-3.9c6,5.4,16,0.4,17.6-8.8c0.6-3.5-1.2-7.3-4.1-8.4c-6.9-2.7-3.5-10.8,5.1-12.4
			c10.8-2,19.2,0.6,20.3,6.1c1.2,6.6,9.2,5,24.4-5c6.7-4.4,16-8.7,20.6-9.6c4.6-0.9,9.8,0.7,11.5,3.6c1.7,2.8,6.5,4.5,10.6,3.7
			C1695,1177,1694.9,1185.7,1683.9,1197.5L1683.9,1197.5z M1660.7,1215.8c-1.8,1.6-3.6,1.2-4-0.9c-0.4-2.1,0.9-4.2,3-4.6
			c2-0.4,3.8,0,4,0.9C1663.8,1212.1,1662.5,1214.2,1660.7,1215.8L1660.7,1215.8z M1487.1,514.5c-1.3,0.3-7.5-1.1-13.9-3.1
			c-6.7-2-21.4-1.7-34.9,0.8c-20.3,3.8-23.8,3.4-26.7-2.7c-3.8-8-14-7.2-31,2.5c-7,4-12.3,5.3-14.2,3.3c-1.7-1.7-6.1-3.6-9.9-4.3
			c-8-1.4-11.8-15.7-6.4-24c3.9-6,1.3-5.4-35.8,8.3c-11,4.1-15.8,4.2-20.4,0.3c-10.7-8.9-39.9-0.5-62.2,17.8
			c-12.4,10.2-20.8,14.8-23.5,13c-6.8-4.8-13.5-22.1-8.9-23c2.2-0.4,4.6,1.9,5.2,5.2c0.9,4.7,2,4.9,5.5,0.7c2.5-3,2.8-8.4,0.8-12.7
			c-3-6.4-2.2-7.3,5.4-6.8c5.2,0.4,13.8-3.2,20.9-8.6c6.6-5.1,20.1-11.8,30-15c24-7.8,71.2-10.2,81.1-4.1c4.3,2.6,14.1,4.4,21.8,3.9
			c7.7-0.5,17.9,0.4,22.7,2c12.6,4.2,46.9,9.1,54.4,7.9c4.4-0.7,7,1.9,8.2,8.3c1.1,6.1,7.4,12.9,17.9,19.5
			C1482.1,509.5,1488.3,514.3,1487.1,514.5L1487.1,514.5z M1408.2,445.1c-3.9,0.9-6.2,0.4-5.2-1c1-1.5,4.1-2.2,7-1.6
			C1413.2,443.1,1412.5,444.2,1408.2,445.1z M1303,836.2c-4.9,4.6-15.1,8.1-29.7,10.2c-13.6,2-30.2,7.4-42.7,14
			c-24.6,13-22.9,12.6-24.2,5.4c-0.8-4.2-2.8-4.8-7.1-2c-13.5,8.8-32.4,16.3-38.5,15.2c-4.4-0.8-6.5-4.2-6.4-10.8
			c0-12.5-6-14.6-13.6-4.6c-4.2,5.5-7.4,6.9-10.6,4.7c-7.9-5.4-53.2,26.3-61.1,42.7c-1.1,2.3-3.1-1.2-4.3-7.9
			c-2.7-14-10.2-16.8-21.1-8.1c-4.2,3.3-15.2,7.8-24.6,9.8c-10.6,2.3-19,6.6-22.2,11.2c-2.8,4.1-10.2,8.4-16.4,9.6
			c-14.6,2.7-32.4,19.1-36.9,34c-4.3,14.2-10.1,16.3-12.3,4.4c-1.1-5.7,3.9-16.3,14.3-30.7c8.7-12.1,17.8-26.6,20.2-32.1
			c11.7-27.4,70.5-66.3,111.3-73.7c13.3-2.4,29.7-6.8,36.5-9.8c6.8-3,23-6,36-6.7c14.8-0.8,28.5-3.6,36.7-7.6
			c25.8-12.6,51.6-14,53.7-2.9c0.9,4.8,7.2,6.4,26.3,6.8c27.9,0.6,34.5,2.9,40.3,14.1C1309.5,827.2,1308.6,831,1303,836.2
			L1303,836.2z M1196.5,817.9c-2.3,1.5-0.1,1.9,5,1c5.1-0.9,7-2.2,4.3-2.7C1203,815.7,1198.8,816.4,1196.5,817.9L1196.5,817.9z
			 M1142.1,847.8c-1.8,1.6-3.1,3.7-3,4.6c0.2,0.9,2,1.3,4,0.9c2-0.4,3.4-2.4,3-4.6C1145.6,846.6,1143.8,846.2,1142.1,847.8
			L1142.1,847.8z M1108.6,829.3c-1.8,0.3-4.8,3.5-6.8,7c-2.9,5.2-2.5,6.2,1.8,5.4c2.9-0.6,6.3-2.3,7.4-3.9
			C1113.8,833.6,1112.4,828.6,1108.6,829.3z M1037,861c-2.1,3.1-2,4.9,0.3,4.5c4.9-0.9,8.5-6.1,5.5-8.1
			C1041.5,856.6,1038.9,858.2,1037,861L1037,861z M1229.6,644.8c-1.9,1.7-4.5,2.4-5.8,1.6c-3.1-2.1,0.2-10.2,4.5-11
			C1233,634.5,1233.9,640.9,1229.6,644.8L1229.6,644.8z M1347.7,1361.3c-4,3.6-11,9.8-15.5,13.8c-11.8,10.4-40,23.4-47.7,22
			c-4.8-0.9-6.5-4.1-6.4-12.2l0.1-11l-16.3,12c-26.2,19.2-34.3,21.9-38.6,12.8c-3.7-7.9-6.1-7.6-26.3,3c-6.6,3.5-8.8,2.4-14-6.6
			c-7.1-12.5-8.3-12.5-30,0.2c-15.7,9.1-16.9,9.3-28.3,4.4c-7.2-3.1-23-4.2-40.1-2.9c-15.5,1.2-33.3,2.5-39.5,2.9
			c-6.2,0.4-26.4,2.4-44.9,4.4c-24.2,2.7-36.3,2.3-43.2-1.5c-5.3-2.9-9.7-5.9-9.8-6.8c-0.3-1.8,99.6-26,122.1-29.5
			c8.7-1.4,16.4-0.3,18.8,2.5c3.1,3.8,9.1,3.3,28.6-2.2c16.7-4.8,25.7-5.8,28-3.3c2,2.2,13.8,1.7,28.7-1c17.6-3.3,27.3-3.4,31.9-0.2
			c3.7,2.5,13.1,3.3,21.6,1.7c8.3-1.5,18.4-1.5,22.4,0.1c5.8,2.3,10.4,0.5,21.7-8.2c16.7-12.9,26.6-10.9,20.7,4.2
			c-5.2,13.2,2.4,15.4,19.9,5.7C1346,1346.3,1367.2,1343.9,1347.7,1361.3L1347.7,1361.3z M975.5,553.6c-5.7,5.8-20.6,24.2-33.1,40.8
			c-12.5,16.6-24.9,30.6-27.7,31.1c-8.7,1.6-10.8-7.9-5.2-23.2c7.7-21.2-0.9-17.7-17,6.8c-10.5,16-14.8,19.8-22.2,19.4
			c-6.8-0.4-11.9,2.9-19.7,12.9c-11.1,14.2-20.2,18.4-24.4,11.3c-1.8-3-4.5-1.4-8.8,5.2c-5.5,8.4-7.6,9.2-18.5,7.3
			c-11-2-12.8-1.2-17.5,7.4c-2.8,5.2-8.9,10.2-13.4,11.1c-4.5,0.9-13.2,7-19.3,13.7c-9.5,10.6-12.1,11.7-19.4,8.9
			c-7.6-3-9.4-1.6-18.2,13.3c-5.4,9.1-11,19-12.5,21.9c-1.5,2.9-4.3,5.6-6.3,5.9c-5.6,1-5.7-7.4-0.1-22c6-15.9,6-17.2-0.4-16
			c-2.7,0.5-8,5.8-11.8,11.7c-7.3,11.5-12.5,14.5-13.7,8.1c-1.6-8.4,18.7-29.7,30-31.6c6.2-1,18.9-7.5,28.1-14.4
			c9.2-6.9,23-15.8,30.6-19.9c7.6-4.1,18-12.8,23-19.5c14.9-19.6,53.7-46.4,73-50.4c11-2.3,20.4-7.1,26.6-13.6
			c5.3-5.5,11.5-10.3,13.9-10.8c2.3-0.4,8.9-4.5,14.7-8.9c10-7.8,10.8-7.9,18.2-1.5c9.8,8.3,10.4,8.2,23.2-6
			c13.1-14.5,35.7-23.7,37.3-15.2C985.5,540.4,981.3,547.7,975.5,553.6L975.5,553.6z M863.7,1454.5c-3.6,0.7-14.2-4.1-23.5-10.6
			c-15.1-10.6-19.4-11.6-40.8-10c-13.1,1-24.2,0.4-24.5-1.4c-0.3-1.8-3.9-2.6-7.9-1.9c-4,0.7-13.8-0.9-21.7-3.6
			c-8-2.7-18.4-4.2-23.1-3.3c-4.8,0.9-11-0.3-13.9-2.7c-5.4-4.5-25.5-5.3-44.5-1.6c-6.3,1.2-16.5-0.9-23.8-4.8
			c-12-6.5-12.5-7.3-7.6-14.5c4.3-6.5,6.7-7.2,15.9-4.9c7.5,1.9,11.7,1.3,13.9-1.9c5.7-8.4,25.6-9.3,36-1.7c6.6,4.8,15.7,6.8,27.5,6
			c9.7-0.7,23.7-1.2,31-1.2c7.3,0,17.1-0.4,21.7-0.9c4.6-0.5,11.7,2.3,15.7,6.3c4.1,4,8.9,5.9,10.7,4.3c1.8-1.6,9.1-3,16.4-2.9
			c10.3,0,14.8,2.5,20.8,11.7c4.2,6.4,11.7,14.7,16.8,18.4C870,1441.5,872.7,1452.8,863.7,1454.5L863.7,1454.5z M599.1,1303.5
			c-3.2,1.7-16.7,4.9-29.9,7.1c-13.2,2.2-27.5,6-31.8,8.3c-6.3,3.4-8.8,2.6-13.1-4.6c-3.8-6.2-8.1-8.3-14.4-7.1
			c-5,0.9-10.2,0.4-11.7-1.1c-1.4-1.6-9.8-2.6-18.7-2.4s-17.7-1.3-19.7-3.5c-2-2.2-11-2.6-20-0.9c-12.9,2.3-18.8,1.3-27.2-5
			c-5.9-4.4-12.2-10.4-14.1-13.5c-1.9-3.1-7.5-4.7-12.8-3.7c-5.8,1.1-10.6-0.6-12.6-4.3c-1.7-3.3-6.2-10.1-9.9-14.9l-6.8-8.9
			l16.6,4.1c9.1,2.2,20.7,3.4,25.8,2.6c5.1-0.8,12.9,0.3,17.4,2.5c4.5,2.2,12.8,3.2,18.4,2.2c6.4-1.2,12.2,0.5,15.5,4.7
			c3.9,4.8,9.1,5.9,19.1,4.1c7.6-1.4,17.8-0.8,22.7,1.5c4.9,2.2,15.9,3.4,24.5,2.5c8.6-0.8,17.8,0,20.5,1.9
			c2.7,1.9,8.9,2.6,13.8,1.7c5.6-1.1,10,0.8,12,5.2c2.4,5.1,7.1,6.4,18.3,5.2c11.6-1.3,16.1,0.1,19.6,5.9
			C603.9,1298.6,603.6,1301.2,599.1,1303.5L599.1,1303.5z M459.9,910.7c-5.1,7.1-12.7,21.5-17,32.1c-9.5,23.4-15.2,27.6-24.9,18.3
			l-7.3-7l-4.9,8.8c-8.2,14.8-23,26.7-34.3,27.6c-8.6,0.7-11.5,3.3-15,13.4c-2.4,6.9-7.4,14.2-11.3,16.1c-3.8,2-9.2,7.7-12,12.7
			c-4.7,8.5-5.3,8.7-10.1,3.4c-4-4.6-6.4-4.7-11.8-0.3c-3.7,3-7.8,4.7-9.1,3.8c-5-3.4-2-29.1,4.1-34.7c3.5-3.2,9.7-13.1,13.6-21.8
			c6.4-14.3,8.4-15.9,19.4-15.9c14.1,0,32.3-15.4,43.7-37.1c5.8-11.1,8.4-12.8,19.6-12.8c9.7,0,15.2-2.4,22.1-9.5
			c5.1-5.2,11.3-9.9,13.9-10.4c2.6-0.5,7-3.9,9.8-7.6c6.1-8.1,17.7-6.9,19.3,1.9C468.6,895.1,465,903.7,459.9,910.7L459.9,910.7z"/>
	</g>
</g>
<g id="Layer_5" class="st0">
	<g class="st1">
		<path id="path846_2_" class="st2" d="M998.1,1961.9c-532.3,0-963.8-431.5-963.8-963.8S465.8,34.2,998.1,34.2
			s963.8,431.5,963.8,963.8"/>
		<path id="path846" class="st2" d="M1961.9,998.1c0,532.3-431.5,963.8-963.8,963.8"/>
		<path id="path4631" class="st2" d="M1503.3,573.8v1052l-969.1,29.8V278.5l0,0c0,0,625.8,0,675,0"/>
		<path id="rect4626" class="st2" d="M1523.5,583.3h-322.9V258.3"/>
		<path id="path4660" class="st20" d="M1206.5,272.6l302.7,304.8L1206.5,272.6z"/>
	</g>
</g>
<g id="Layer_6" class="st0">
	<g class="st1">
		<path id="path848_3_" class="st2" d="M39.8,998.1c0-529.2,429-958.3,958.3-958.3s958.3,429,958.3,958.3"/>
		<path id="path848_2_" class="st2" d="M998.1,1956.4c-529.2,0-958.3-429-958.3-958.3"/>
		<path id="path848" class="st2" d="M1956.4,998.1c0,529.2-429,958.3-958.3,958.3"/>
		<path id="path896" class="st21" d="M511.5,366.6c-12.9-0.1-23.7,11.3-23.7,11.3l313.4,438.6L251.7,711.3
			c-6,29.8,18.7,38.3,18.7,38.3l581.2,187.9l34.9,24.7c0,0,91.9,93.8,121.7,165.4c29.8,71.6,24.7,149.6,24.7,149.6
			s-5.9,62.9-8.6,98.3c-2.7,35.4,3.6,59.8,15.7,95.2c42.1,133.1,185,183.2,229.9,185.1c15.8-0.3,112.1,8.5,143.4-80.2
			c31.4-88.7-47.5-161.4-47.5-161.4s-29.6-25.1-100.4-100.4c-70.8-75.3-192.5-238-193.2-249.4c-0.7-11.4-10.2-16.7-10.2-16.7
			l-9.5-71c0,0,39.3-10.8,64-18.4c24.7-7.6,53.9,0,53.9,0s19,1.3,102.7,21.6c83.7,20.3,278.9,96.3,278.9,96.3s33.6,7,61.5,2.5
			c27.9-4.4,56.4-22.8,56.4-22.8s20.9-17.7,34.2-37.4c13.3-19.6,5.1-72.9,5.1-72.9s-3.8-29.8-49.4-89.4
			c-45.6-59.6-140.7-83.7-140.7-83.7s-93.2-33-193.3,38.7c-100.1,71.6-176.2,60.2-207.3,58.9c-31.1-1.3-173-45.6-173-45.6
			S548.6,398.2,529.6,376C523.7,369.1,517.3,366.7,511.5,366.6z M1452.2,800.9C1560.5,801,1683,911.6,1662.9,982
			c-28.5,100.1-117.2,29.3-145.8,20.3c-28.6-9-72.9-29.8-123.6-34.2c-83-24.1-58.9-97-58.9-97
			C1363.4,820.4,1406.5,800.8,1452.2,800.9L1452.2,800.9z M1132.8,1274.2c21.1-0.1,51.9,8.3,76.1,49.8
			c40.8,61.9,84.5,92.1,122.8,131.8c33.7,35,52,83.8,6.3,138c-18.6,13-26.2,14.4-47.5,15.3c-201.7,8.4-286.9-282.9-182-330.8
			C1108.6,1278.2,1118.4,1274.2,1132.8,1274.2L1132.8,1274.2z"/>
	</g>
</g>
</svg>
