<?xml version="1.0" encoding="utf-8"?>
<!-- Generator: Adobe Illustrator 24.0.0, SVG Export Plug-In . SVG Version: 6.00 Build 0)  -->
<svg version="1.1" id="Layer_2" xmlns="http://www.w3.org/2000/svg" xmlns:xlink="http://www.w3.org/1999/xlink" x="0px" y="0px"
	 viewBox="0 0 1996.2 1996.2" style="enable-background:new 0 0 1996.2 1996.2;" xml:space="preserve">
<style type="text/css">
	.st0{fill:none;stroke:#000000;stroke-width:11.9055;stroke-miterlimit:11.3386;}
	.st1{fill:none;stroke:#000000;stroke-width:0.75;stroke-miterlimit:11.3386;}
	.st2{stroke:#000000;stroke-width:0.75;stroke-miterlimit:11.3386;}
	.st3{fill:none;stroke:#000000;stroke-width:2.1685;stroke-miterlimit:11.3386;}
	.st4{stroke:#000000;stroke-width:0.75;stroke-miterlimit:3;}
	.st5{fill:none;stroke:#000000;stroke-width:1.885;stroke-miterlimit:11.3386;}
	.st6{fill:none;stroke:#000000;stroke-width:1.3181;stroke-miterlimit:11.3386;}
	.st7{fill:none;stroke:#000000;stroke-width:3.8693;stroke-miterlimit:11.3386;}
	.st8{fill:none;stroke:#000000;stroke-width:2.452;stroke-miterlimit:11.3386;}
	.st9{fill:none;stroke:#000000;stroke-width:0.7512;stroke-miterlimit:11.3386;}
	.st10{fill:none;stroke:#000000;stroke-width:2.7354;stroke-miterlimit:11.3386;}
</style>
<g>
	<circle id="path829_1_" class="st0" cx="998.1" cy="998.1" r="964"/>
	<g id="g4688_1_" transform="translate(2.6192413,3.7417733)">
		<ellipse id="path4545_1_" cx="952.6" cy="986.1" rx="13.1" ry="12.1"/>
		<circle id="path4547_1_" cx="1353.9" cy="1031.4" r="12.4"/>
		<path id="path4549_1_" class="st1" d="M1319.6,1031.9c-0.5,24.1,21.9,26.4,21.9,26.4s24.3,3.8,37.6-5.6
			c13.3-9.5,4.1-31.1,4.1-31.1L1319.6,1031.9z"/>
		<path id="path4551_1_" class="st2" d="M1278.4,1031c57.3-42.2,187.3-21.2,187.1,34c-73.3-74.4-168.6-22.5-168.6-22.5L1278.4,1031z
			"/>
		<path id="path4553_1_" class="st3" d="M1450.4,1049.7c-49.7,48.1-130.4,40.8-154.3-7.3c-3.9-7.9,37.3-25.2,37.3-25.2"/>
		<path id="path4555_1_" class="st2" d="M1278.4,1031c79.1-72.8,103.5-57.9,117.9-60.6c14.4-2.7,106.9-64.9,106.9-64.9l-5.4,48.7
			c0,0-21.2,22.5-50.5,36.1c-29.3,13.5-28.4-1.8-60,16.2c-31.6,18-32.9,12.6-32.9,12.6"/>
		<path id="path4557_1_" class="st3" d="M1083.4,1033c-30.2-9.5-71.7,7.2-101,6.3c-29.3-0.9-80.7-19.4-90.2-38.3
			C887.2,992.9,984.6,912.6,1083.4,1033z"/>
		<path id="path4577_1_" class="st4" d="M892.2,1001L892.2,1001L892.2,1001c-4.1-41.5,38.8-43.7,52.3-43.3
			c13.5,0.5,52.3-4.5,96.5,8.1c44.2,12.6-30.2-52.3-36.5-57.3c-6.3-5-111.4-73.5-111.4-73.5s12.2-21.2,54.1-5.9
			c41.9,15.3,126.2,72.1,146.1,93.8c19.8,21.6,29.3,37.9,56.4,52.3c27.1,14.4,29.3,28.4,29.3,28.4s-14.4-12.2-28-12.6
			c18.9,21.6,27.1,47.8,13.1,67.6c-19.4-38.8-52.8-43.7-117.2-64c-1.6-0.5-3.2-1-4.8-1.4l-10.1-9.1l-23.8-11.8l-33.2-7l-38.4,3.7
			l-29.8,14l-10.5,7.8L892.2,1001z"/>
		<path id="path4580_1_" class="st1" d="M922.8,975.5c-10.8,9.2-24.6,2-7.9,18.5c16.7,16.5,27.1,23.4,42.2,24.8
			c15.1,1.4,30.2-10.4,30.4-14.7c0.2-4.3,4.4-32.9-4.1-35.8c-8.4-2.9-25.7-6.3-25.7-6.3L922.8,975.5z"/>
		<path id="path4582_1_" class="st2" d="M958,1499.7c42.8,9,159.2-14.9,180.4,0c21.2,14.9,32.9,18,45.5,8.6c12.6-9.5,19.8-23,38.8-9
			c18.9,14,39.2,15.8,39.2,15.8l-99.6,9c0,0-11.3-0.9-15.3,3.6c-4.1,4.5-14.9,6.8-18.9,3.6c-4.1-3.2-18-8.6-26.6-9.5
			C1092.8,1520.9,980.1,1518.2,958,1499.7z"/>
		<path id="path4584_1_" class="st5" d="M1228.5,1515l-0.5,48.2c0,0,1.4,8.1-6.8,14.9c-8.1,6.8-138.4,32-188.9-7.2
			c-50.5-39.2,0.9,0.9,0.9,0.9"/>
		<path id="path4586_1_" class="st6" d="M1008.5,1302.6c-52.3,84.8-113.6,131.7-119,174.9c-5.4,43.3,40.6,129,40.6,129l0,0l0,0"/>
		<path id="path4588_1_" class="st6" d="M1301.6,1361.3c19.8,39.7,10.8,127.1,10.8,127.1"/>
		<path id="path4590_1_" class="st7" d="M1503.7,1024.9c0,0-8.9,147.9-17.9,173.4c-8.9,25.5-123.7,224.5-145.4,294.6
			c-21.7,70.1-114.8,198.9-114.8,198.9s-57.4,79.1-127.5,67.6c-70.1-11.5-147.9-8.9-147.9-8.9s-43.4,1.3-89.3-51
			c-45.9-52.3-85.4-79.1-85.4-79.1s-24.2-40.8-66.3-114.8c-42.1-74-80.3-112.2-88-220.6s-12.8-130.1-12.8-130.1s-7.7-39.5-44.6-61.2
			c-37-21.7-11.5-79.1-11.5-79.1l17.9-25.5l37,30.6c0,0,35.7,82.9,48.5,84.2s-14-96.9-2.6-116.1c11.5-19.1,15.3-19.1,16.6-38.3
			c1.3-19.1-2.6-25.5,2.6-43.4s15.3-35.7,15.3-35.7s6.4-7.7,25.5-15.3c19.1-7.7,23-7.7,30.6-14c7.7-6.4,8.9-3.8,17.9-16.6
			c8.9-12.8,11.5-10.2,16.6-24.2c5.1-14,8.9-26.8,8.9-33.2c0-6.4,10.6-65.2,19.6-73.3c9-8.1,15.3-15.3,21.6-18
			c6.3-2.7,28-1.8,28-1.8s14.4,3.6,28,9c13.5,5.4,15.3,5.4,29.8,9.9c14.4,4.5,25.2,8.1,32.5,6.3c7.2-1.8,28-9,28-9
			s57.7-37,71.2-31.6c-15.8,5.9-69.4,36.1-55,38.8c14.4,2.7,25.2,8.1,34.3,6.3c9-1.8,11.7-7.2,24.3,2.7c12.6,9.9,23.4,18,30.7,20.7
			c7.2,2.7,8.1,3.6,28.9,6.3c20.7,2.7,36.1,3.6,40.6,6.3s17.1,11.7,26.2,18.9c9,7.2,40.6,18,40.6,18s32,0.6,39.7-0.1
			c7.7-0.6,11.5,1.9,12.1,5.1c0.6,3.2,0.6,3.2,0.6,7c0,3.8-8.9,3.8,0,5.7c8.9,1.9,10.8,0,15.9-1.3c5.1-1.3,15.3-3.8,21-3.8
			c5.7,0,5.1-1.3,14.7-1.3h20.4c22.3,0,9.6,2.6,23-0.6c13.4-3.2,8.9-1.9,14.7-3.2c5.7-1.3,5.1-1.3,10.8-2.6
			c5.7-1.3,5.1-1.9,10.8-2.6c5.7-0.6-0.6-1.3,10.2-1.9c10.8-0.6,12.1-1.9,15.9-1.3c3.8,0.6-0.6-3.8,11.5,1.9
			c12.1,5.7,12.8,4.5,13.4,7c0.6,2.6,0,1.9,1.3,6.4c1.3,4.5,0.6,2.6,4.5,7.7c3.8,5.1-1.3,1.3,5.1,7c6.4,5.7,5.7,7.7,8.9,8.3
			c3.2,0.6-0.6,3.8,9.6,1.9c10.2-1.9,11.5-1.9,14.7-4.5c3.2-2.6,3.2-1.3,6.4-6.4c3.2-5.1,4.5-7.7,8.3-10.8s9.6-10.8,9.6-10.8
			s-0.8,81.2-8.3,101.4C1503.1,905.4,1503.7,1024.9,1503.7,1024.9L1503.7,1024.9z"/>
		<path id="path4605_1_" class="st6" d="M920.8,787.7c74-2.6,176,74,176,74"/>
		<path id="path4607_1_" class="st6" d="M1481,878.8c-145.2-12.6-192.1,27.1-220,26.2c-28-0.9-37-7.2-37-7.2"/>
		<path id="path4609_1_" class="st6" d="M941.8,762.5c149.7,12.6,263.3,114.5,263.3,114.5"/>
		<path id="path4611_1_" class="st6" d="M946.3,714.7c102.8,23.4,228.1,76.7,228.1,76.7"/>
		<path id="path4613_1_" class="st6" d="M1497.3,849.1c-105.5-20.7-166.8-6.3-204.7-8.1c-37.9-1.8-57.7-8.1-57.7-8.1"/>
		<path id="path4615_1_" class="st8" d="M1060.5,1258.9c-3.2,41.4-3.2,41.4-3.2,41.4s-3.8,35.1,15.9,30c19.8-5.1,40.8-10.8,63.8,1.9
			c23,12.8,24.2,10.2,24.2,10.2s13.4,25.5,39.5,26.8c26.1,1.3,51.6-9.6,55.5-17.2c3.8-7.7-4.5-10.8,2.6-12.8
			c7-1.9,25.5-2.6,25.5-12.1c0-9.6-5.1-40.2-5.1-40.2l0,0"/>
		<path id="path4619_1_" class="st2" d="M1100.3,1325.5c18.2,10.2,33.2,15.1,39.5,9.1C1119.9,1321.2,1100.3,1325.5,1100.3,1325.5z"
			/>
		<path id="path4621_1_" class="st2" d="M1257.5,1346.7c5-1.9,5.6-7.5,5.6-7.5l-5.6,2.3V1346.7z"/>
		<path id="path4623_1_" class="st8" d="M1278.4,1031c0,0-25.5,14.7-25.5,43.5c0,28.9-2.7,119.9-2.7,119.9l0,0"/>
		<path id="path4625_1_" class="st8" d="M1164.1,1058.7c0,0,1.4,35.6-5,44.6c-6.3,9-20.7,40.6-23.4,47.8c-2.7,7.2-3,7.8-3,7.8"/>
		<path id="path4627_1_" class="st2" d="M1033.3,1571.8c0,0,98.1,23.2,158.3,14.4c0,0-49.8,14.9-67.6,14.2
			C1106.1,1599.8,1060.1,1596.2,1033.3,1571.8L1033.3,1571.8z"/>
		<path id="path4590-4_1_" class="st2" d="M1503.7,1024.9c0,0,52.5-73.1,60.2-197.9c9-145.7,61.9-89.9-23.8-303.1
			c-196.5-347.5-452.7-344.2-497.6-344.6c-59.8-0.6-545.1-3.4-553.9,493.7c-56.2,83.7,81.6,316.3,63.8,341.8l17.9-25.5l37,30.6
			c0,0,35.7,82.9,48.5,84.2c12.8,1.3-14-96.9-2.6-116.1c11.5-19.1,15.3-19.1,16.6-38.3c1.3-19.1-2.6-25.5,2.6-43.4
			s15.3-35.7,15.3-35.7s6.4-7.7,25.5-15.3c19.1-7.7,23-7.7,30.6-14c7.7-6.4,8.9-3.8,17.9-16.6c8.9-12.8,11.5-10.2,16.6-24.2
			c5.1-14,8.9-26.8,8.9-33.2c0-6.4,10.6-65.2,19.6-73.3c9-8.1,15.3-15.3,21.6-18c6.3-2.7,28-1.8,28-1.8s14.4,3.6,28,9
			s15.3,5.4,29.8,9.9c14.4,4.5,25.2,8.1,32.5,6.3c7.2-1.8,28-9,28-9s57.7-37,71.2-31.6c-15.8,5.9-69.4,36.1-55,38.8
			c14.4,2.7,25.2,8.1,34.3,6.3c9-1.8,11.7-7.2,24.3,2.7c12.6,9.9,23.4,18,30.7,20.7c7.2,2.7,8.1,3.6,28.9,6.3
			c20.7,2.7,36.1,3.6,40.6,6.3c4.5,2.7,17.1,11.7,26.2,18.9c9,7.2,40.6,18,40.6,18s32,0.6,39.7-0.1c7.7-0.6,11.5,1.9,12.1,5.1
			c0.6,3.2,0.6,3.2,0.6,7c0,3.8-8.9,3.8,0,5.7s10.8,0,15.9-1.3c5.1-1.3,15.3-3.8,21-3.8c5.7,0,5.1-1.3,14.7-1.3h20.4
			c22.3,0,9.6,2.6,23-0.6c13.4-3.2,8.9-1.9,14.7-3.2c5.7-1.3,5.1-1.3,10.8-2.6c5.7-1.3,5.1-1.9,10.8-2.6c5.7-0.6-0.6-1.3,10.2-1.9
			c10.8-0.6,12.1-1.9,15.9-1.3c3.8,0.6-0.6-3.8,11.5,1.9c12.1,5.7,12.8,4.5,13.4,7c0.6,2.6,0,1.9,1.3,6.4c1.3,4.5,0.6,2.6,4.5,7.7
			c3.8,5.1-1.3,1.3,5.1,7c6.4,5.7,5.7,7.7,8.9,8.3c3.2,0.6-0.6,3.8,9.6,1.9c10.2-1.9,11.5-1.9,14.7-4.5c3.2-2.6,3.2-1.3,6.4-6.4
			c3.2-5.1,4.5-7.7,8.3-10.8c3.8-3.2,9.6-10.8,9.6-10.8s-0.8,81.2-8.3,101.4C1503.1,905.4,1503.7,1024.9,1503.7,1024.9
			L1503.7,1024.9z"/>
		<path id="path4644_1_" class="st7" d="M488.5,672.9c0,0-52.3,82.9-45.9,167.1s-3.8,206.6-3.8,206.6s-3.8,45.9,11.5,67.6
			c15.3,21.7,53.6,79.1,53.6,79.1s20.4,25.5,53.6,16.6c33.2-8.9,57.5,7.6,57.5,7.6"/>
		<path id="path4646_1_" class="st1" d="M455.4,841.2l0.6-41.4"/>
		<path id="path4648_1_" class="st6" d="M459.2,945.8c10.8-14,5.7-54.2,5.7-54.2"/>
		<path id="path4650_1_" class="st1" d="M457.3,1020.4c-6.4,32.5,5.1,70.8,28.1,91.2c23,20.4,22,19.1,29.3,23.6
			c7.3,4.5,8.6,3.1,12.8,5.7c4.1,2.6,7,9.6,7,9.6l0,0"/>
		<path id="path4652_1_" class="st9" d="M496.3,959.1c18-33.8,7.2-83-12.2-99.2"/>
		<path id="path4654_1_" class="st10" d="M568,1117.3c-88.4-48.2-55-78-29.8-114.5"/>
	</g>
</g>
</svg>
